<?xml version="1.0" encoding="UTF-8" standalone="no"?>
<svg
   xmlns:dc="http://purl.org/dc/elements/1.1/"
   xmlns:cc="http://creativecommons.org/ns#"
   xmlns:rdf="http://www.w3.org/1999/02/22-rdf-syntax-ns#"
   xmlns:svg="http://www.w3.org/2000/svg"
   xmlns="http://www.w3.org/2000/svg"
   xmlns:sodipodi="http://sodipodi.sourceforge.net/DTD/sodipodi-0.dtd"
   xmlns:inkscape="http://www.inkscape.org/namespaces/inkscape"
   version="1.1"
   viewBox="0 0 489.9 489.9"
   enable-background="new 0 0 489.9 489.9"
   id="svg837"
   sodipodi:docname="order.svg"
   inkscape:version="1.0.2 (e86c8708, 2021-01-15)">
  <metadata
     id="metadata843">
    <rdf:RDF>
      <cc:Work
         rdf:about="">
        <dc:format>image/svg+xml</dc:format>
        <dc:type
           rdf:resource="http://purl.org/dc/dcmitype/StillImage" />
      </cc:Work>
    </rdf:RDF>
  </metadata>
  <defs
     id="defs841" />
  <sodipodi:namedview
     pagecolor="#ffffff"
     bordercolor="#666666"
     borderopacity="1"
     objecttolerance="10"
     gridtolerance="10"
     guidetolerance="10"
     inkscape:pageopacity="0"
     inkscape:pageshadow="2"
     inkscape:window-width="1920"
     inkscape:window-height="1080"
     id="namedview839"
     showgrid="false"
     inkscape:zoom="1.3635436"
     inkscape:cx="244.95"
     inkscape:cy="244.95"
     inkscape:window-x="0"
     inkscape:window-y="0"
     inkscape:window-maximized="0"
     inkscape:current-layer="g835" />
  <g
     id="g835">
    <path
       d="m484.7,87.75l-88.7-84.6c-2.1-2.1-4.2-3.1-7.3-3.1h-287.6c-3.1,0-5.2,1-7.3,3.1l-88.7,84.6c-2.4,2.9-5.1,7-5.1,13.4v378.3c0,6.3 4.2,10.4 10.4,10.4h469.1c6.3,0 10.4-4.2 10.4-10.4v-379.3c0-2.4-1.1-8.2-5.2-12.4zm-229.4-66.9h129.3l68.8,65.7h-198.1v-65.7zm-150.1,0h129.3v65.7h-198.1l68.8-65.7zm-84.4,215.8h89.6v104.2h-89.6c3.55271e-15,0 3.55271e-15-104.2 3.55271e-15-104.2zm448.2,104.2h-89.6v-104.2h89.6v104.2zm0-125.1h-100.1c-6.3,0-10.4,4.2-10.4,10.4v125.1c0,6.3 4.2,10.4 10.4,10.4h100.1v107.4h-448.2v-107.4h100.1c5.2,0 10.4-5.2 10.4-10.4v-125.1c0-6.3-4.2-10.4-10.4-10.4h-100.1v-108.4h448.2v108.4z"
       id="path833"
       style="fill:#000000;fill-opacity:1" />
  </g>
</svg>
